<svg width="48" height="48" viewBox="0 0 48 48" fill="none" xmlns="http://www.w3.org/2000/svg">
<g filter="url(#filter0_i_8_6)">
<path d="M3.76717 44C-7.40711 44 9.83702 35.0457 9.83702 24C9.83702 12.9543 -7.40711 4 3.76717 4C14.9415 4 24 12.9543 24 24C24 35.0457 14.9415 44 3.76717 44Z" fill="#B21AD8"/>
<path d="M3.76717 44C-7.40711 44 9.83702 35.0457 9.83702 24C9.83702 12.9543 -7.40711 4 3.76717 4C14.9415 4 24 12.9543 24 24C24 35.0457 14.9415 44 3.76717 44Z" fill="#B21AD8"/>
</g>
<g filter="url(#filter1_i_8_6)">
<path d="M44.2328 4C55.4071 4 38.163 12.9543 38.163 24C38.163 35.0457 55.4071 44 44.2328 44C33.0585 44 24 35.0457 24 24C24 12.9543 33.0585 4 44.2328 4Z" fill="#B21AD8"/>
<path d="M44.2328 4C55.4071 4 38.163 12.9543 38.163 24C38.163 35.0457 55.4071 44 44.2328 44C33.0585 44 24 35.0457 24 24C24 12.9543 33.0585 4 44.2328 4Z" fill="#B21AD8"/>
</g>
<defs>
<filter id="filter0_i_8_6" x="0" y="4" width="24" height="44" filterUnits="userSpaceOnUse" color-interpolation-filters="sRGB">
<feFlood flood-opacity="0" result="BackgroundImageFix"/>
<feBlend mode="normal" in="SourceGraphic" in2="BackgroundImageFix" result="shape"/>
<feColorMatrix in="SourceAlpha" type="matrix" values="0 0 0 0 0 0 0 0 0 0 0 0 0 0 0 0 0 0 127 0" result="hardAlpha"/>
<feOffset dy="4"/>
<feGaussianBlur stdDeviation="2"/>
<feComposite in2="hardAlpha" operator="arithmetic" k2="-1" k3="1"/>
<feColorMatrix type="matrix" values="0 0 0 0 0 0 0 0 0 0 0 0 0 0 0 0 0 0 0.25 0"/>
<feBlend mode="normal" in2="shape" result="effect1_innerShadow_8_6"/>
</filter>
<filter id="filter1_i_8_6" x="24" y="4" width="24" height="44" filterUnits="userSpaceOnUse" color-interpolation-filters="sRGB">
<feFlood flood-opacity="0" result="BackgroundImageFix"/>
<feBlend mode="normal" in="SourceGraphic" in2="BackgroundImageFix" result="shape"/>
<feColorMatrix in="SourceAlpha" type="matrix" values="0 0 0 0 0 0 0 0 0 0 0 0 0 0 0 0 0 0 127 0" result="hardAlpha"/>
<feOffset dy="4"/>
<feGaussianBlur stdDeviation="2"/>
<feComposite in2="hardAlpha" operator="arithmetic" k2="-1" k3="1"/>
<feColorMatrix type="matrix" values="0 0 0 0 0 0 0 0 0 0 0 0 0 0 0 0 0 0 0.25 0"/>
<feBlend mode="normal" in2="shape" result="effect1_innerShadow_8_6"/>
</filter>
</defs>
</svg>
